<?xml version="1.0" encoding="UTF-8"?>
<svg width="243px" height="67px" viewBox="0 0 243 67" version="1.1" xmlns="http://www.w3.org/2000/svg" xmlns:xlink="http://www.w3.org/1999/xlink">
    <!-- Generator: Sketch 53.2 (72643) - https://sketchapp.com -->
    <title>royal_canin_logo</title>
    <desc>Created with Sketch.</desc>
    <g id="Page-1" stroke="none" stroke-width="1" fill="none" fill-rule="evenodd">
        <g id="970x250_02" transform="translate(-654.000000, -69.000000)" fill="#E2001A" fill-rule="nonzero">
            <g id="royal_canin_logo" transform="translate(654.000000, 69.000000)">
                <circle id="Oval" cx="139.594924" cy="19.1312471" r="4.18817647"></circle>
                <circle id="Oval" cx="143.574406" cy="10.2874765" r="4.18817647"></circle>
                <path d="M51.8390471,51.4616824 C51.8390471,59.9881235 44.9264118,66.8979 36.3985412,66.8979 C27.8721,66.8979 20.9637529,59.9881235 20.9637529,51.4616824 C20.9637529,42.9338118 27.8721,36.0226059 36.3985412,36.0226059 C44.9249824,36.0226059 51.8390471,42.9338118 51.8390471,51.4616824 Z M36.4542882,43.1753824 C31.8787412,43.1753824 28.1694176,46.8861353 28.1694176,51.4616824 C28.1694176,56.0372294 31.8787412,59.7479824 36.4542882,59.7479824 C41.0298353,59.7479824 44.7405882,56.0372294 44.7405882,51.4616824 C44.7405882,46.8861353 41.0298353,43.1753824 36.4542882,43.1753824 Z" id="Shape"></path>
                <path d="M178.330553,63.7288941 C178.330553,63.7288941 177.931747,66.4347706 181.689671,66.7635353 C181.689671,66.7635353 184.654271,66.8750294 185.040212,63.7260353 L185.040212,49.329 C185.0445,49.1703353 185.316088,48.9845118 185.406141,49.1331706 L194.402859,65.2726588 C194.402859,65.2726588 195.453476,66.7921235 197.611888,66.7106471 C197.611888,66.7106471 201.092506,67.0136824 202.114535,63.7260353 L202.178859,62.6768471 L202.178859,38.4840529 C200.915259,35.0777647 196.645606,35.0591824 195.569259,38.4669 L195.569259,52.6423765 C195.569259,52.6423765 195.5907,53.1412412 195.287665,53.0869235 C192.360229,48.1440176 189.787288,42.9423882 186.699759,37.8736941 C185.762065,36.3356471 183.130518,35.4322588 181.319453,36.1869882 C179.425482,36.9760235 178.923759,38.1924529 178.627871,38.7413471 C178.627871,38.7413471 178.260512,39.2945294 178.260512,40.0120941 L178.260512,63.5587941" id="Path"></path>
                <path d="M152.612576,63.2900647 L152.612576,38.3654118 C152.859865,35.6152235 155.8602,35.6795471 155.784441,35.6766882 C156.873653,35.6995588 157.904259,35.7510176 159.090671,37.2590471 C161.404888,40.2079235 163.408924,42.9180882 165.668824,45.9727412 C169.752653,51.5059941 173.316176,56.2716529 177.277076,61.9707176 C177.8517,62.7997765 177.554382,63.7503353 177.252776,64.5622412 C176.756771,65.9101765 175.317353,66.5991529 174.002294,66.6777706 C173.471982,66.7135059 172.742982,66.5891471 172.256982,66.1217294 C170.906188,64.8181059 169.456765,62.4981706 167.984471,60.5813294 C167.980182,60.5813294 159.565235,60.5270118 159.556659,60.6027706 C159.520924,60.8972294 159.469465,62.8612412 159.219318,64.1505706 C158.823371,66.1660412 157.106647,66.4948059 156.210406,66.6563294 C156.0789,66.6806294 156.3948,66.6377471 156.216124,66.6506118 C154.956812,66.7392353 152.8956,66.1345941 152.611147,63.3015 L152.612576,63.2900647 Z M162.754253,53.8630941 C163.093024,53.8430824 163.022982,53.5000235 162.9072,53.3470765 C161.747947,51.7918765 160.760224,50.3853353 159.5538,48.7944 C159.523782,50.3567471 159.472324,52.2750176 159.530929,53.8902529 C159.533788,53.9431412 160.968918,53.8916824 161.004653,53.8845353 C161.3277,53.8373647 162.138176,53.9002588 162.754253,53.8630941 Z" id="Shape"></path>
                <path d="M218.828647,63.5387824 C218.828647,63.5387824 218.426982,66.2446588 222.186335,66.5748529 C222.186335,66.5748529 225.149506,66.6849176 225.538306,63.5330647 L225.538306,49.1360294 C225.542594,48.9802235 225.811324,48.7929706 225.904235,48.9430588 L234.902382,65.0796882 C234.902382,65.0796882 235.951571,66.6020118 238.107124,66.5205353 C238.107124,66.5205353 241.589171,66.8235706 242.609771,63.5330647 L242.675524,62.4838765 L242.675524,38.2925118 C241.411924,34.8876529 237.145129,34.8676412 236.063065,38.2739294 L236.063065,52.4508353 C236.063065,52.4508353 236.088794,52.9468412 235.784329,52.8939529 C232.855465,47.9524765 230.283953,42.7508471 227.196424,37.6850118 C226.260159,36.1455353 223.625753,35.2421471 221.813259,35.9968765 C219.923576,36.7844824 219.420424,38.0023412 219.124535,38.5483765 C219.124535,38.5483765 218.758606,39.1015588 218.758606,39.8205529 L218.758606,63.3672529" id="Path"></path>
                <path d="M206.672929,39.4589118 L206.672929,63.1171059 C206.672929,63.1171059 206.508547,66.6005824 210.154976,66.6005824 C213.804265,66.6005824 213.860012,63.2286 213.860012,63.2286" id="Path"></path>
                <path d="M213.887171,63.2557588 L213.887171,39.5989941 C213.887171,39.5989941 214.051553,36.1140882 210.402265,36.1140882 C206.755835,36.1140882 206.700088,39.4860706 206.700088,39.4860706" id="Path"></path>
                <path d="M2.7702,40.2779647 C4.18531765,38.4211588 7.13276471,36.6872824 9.85436471,36.3270706 C12.4530353,35.9854412 14.0954294,36.8530941 14.4256235,36.9645882 C18.5094529,38.3368235 21.2739353,43.0424471 20.7293294,47.6980412 C20.4048529,50.4682412 18.7638882,52.9711412 16.7212588,54.7779176 C18.6881294,59.1390529 22.3760118,61.9921588 21.7913824,64.1534294 C21.3882882,65.6528824 20.9751882,66.0388235 19.6544118,66.6134471 C18.8139176,66.9793765 17.5960588,66.8821765 16.8913588,66.2818235 C13.4664882,63.3672529 11.6611412,59.1547765 8.77801765,56.1401471 C8.06188235,55.3954235 7.74026471,55.7284765 7.74169412,56.133 C7.75455882,59.6650765 7.78171765,62.2923353 7.60161176,64.0176353 C7.49011765,65.0511 6.5124,66.2460882 5.84915294,66.5762824 C4.00664118,67.4996824 1.5066,66.3861706 1.18212353,64.3106647 C1.12351765,63.9447353 0.650382353,62.3409353 0.620364706,55.0480765 C0.606070588,51.4359529 0.321617647,50.6426294 0.543176471,44.9164059 C0.597494118,43.6513765 1.48372941,41.9661 2.7702,40.2779647 Z M10.6148118,49.6020176 C12.5788235,49.6020176 14.1697588,48.1340118 14.1697588,46.3186588 C14.1697588,44.5061647 12.5788235,43.0381588 10.6148118,43.0381588 C8.64937059,43.0381588 7.05557647,44.5061647 7.05557647,46.3186588 C7.05557647,48.1340118 8.64937059,49.6020176 10.6148118,49.6020176 Z" id="Shape"></path>
                <path d="M102.313006,30.5808353 C101.722659,30.9038824 101.046547,31.2783882 100.370435,31.0253824 C99.5199353,30.7066235 99.5242235,29.4601765 100.078835,29.1528529 C113.512447,21.7384941 128.259688,23.9154882 136.728953,29.2886471 C136.923353,29.4101471 137.723824,30.2306294 137.099171,30.9267529 C136.777553,31.2926824 136.004241,31.3169824 135.339565,30.9710647 C123.329647,24.7188176 112.403224,25.0876059 102.313006,30.5808353 Z" id="Path"></path>
                <path d="M102.556006,23.1307412 C106.538347,21.3997235 110.667918,20.4706059 114.950435,20.1346941 C118.505382,19.8559588 121.938829,20.0675118 125.563818,20.6478529 C129.220253,21.2339118 132.419276,22.3974529 135.686912,23.8926176 C136.787559,24.3929118 137.862476,24.8960647 138.887365,25.7079706 C139.633518,26.3011765 139.573482,26.9501294 139.401953,27.5390471 C139.061753,28.7083059 137.699524,28.6025294 136.883329,28.1308235 C125.343688,21.4468941 111.472676,22.1430176 99.8401235,28.0950882 C99.1297059,28.4595882 97.9032706,28.5139059 97.5259059,27.5433353 C96.9827294,26.1482294 98.1562765,25.2191118 99.2640706,24.5015471 C99.4284529,24.3972 99.1096941,24.5958882 99.2669294,24.5101235 C100.995088,23.5824353 101.629747,23.5324059 102.556006,23.1307412 Z" id="Path"></path>
                <circle id="Oval" cx="92.6802" cy="10.2889059" r="4.18674706"></circle>
                <circle id="Oval" cx="97.0341882" cy="19.1312471" r="4.18817647"></circle>
                <circle id="Oval" cx="107.204453" cy="15.5934529" r="4.18817647"></circle>
                <circle id="Oval" cx="104.994582" cy="5.86630588" r="4.18817647"></circle>
                <circle id="Oval" cx="118.039394" cy="13.8252706" r="4.18960588"></circle>
                <circle id="Oval" cx="118.039394" cy="4.31825294" r="4.18960588"></circle>
                <circle id="Oval" cx="129.094465" cy="15.1531941" r="4.18817647"></circle>
                <circle id="Oval" cx="131.082776" cy="5.86630588" r="4.18817647"></circle>
                <path d="M53.2870412,36.3399353 C54.9051353,36.9660176 55.6755882,38.2510588 56.7347824,39.3617118 C58.5687176,41.2871294 60.1453588,43.2339882 62.1351,45.0107471 C62.2608882,45.1236706 62.6253882,45.1236706 62.7211588,45.0107471 C65.2483588,42.0089824 67.2724059,38.9671941 70.3713706,36.5414824 C72.0609353,35.2178471 74.8168412,36.1812706 75.3414353,38.4225882 C75.5958706,39.5146588 75.2313706,40.5223941 74.6367353,41.3071412 C71.6878588,45.1965706 68.8261765,48.4084588 65.8615765,52.0691824 C65.7786706,56.1044118 66.339,60.1882412 65.7715235,64.2634941 C65.5628294,65.7743824 63.9261529,66.6363176 62.5496294,66.5877176 C61.5919235,66.5548412 60.5741824,66.0731294 59.9266588,65.1411529 C59.5993235,64.6665882 59.3477471,64.1034 59.3263059,63.6159706 C59.1776471,59.7822882 58.9989706,55.9600412 59.0089765,52.1235 C54.7636235,46.7074588 49.1417471,41.9389412 48.9101824,39.9463412 C48.6400235,37.665 50.3381647,35.1992647 53.2870412,36.3399353 Z" id="Path"></path>
                <path d="M103.405076,59.3077235 L103.405076,39.1644529 C103.383635,34.0257176 96.3237706,34.8604941 96.5653412,39.0458118 L96.5653412,64.1162647 C96.5653412,64.1162647 96.5653412,66.2060647 99.0811059,66.0116647 L110.243382,66.0116647 C110.243382,66.0116647 113.450982,66.0802765 113.643953,62.9012647 C113.643953,62.9012647 113.616794,60.1367824 110.992394,59.5564412 L103.750994,59.5278529 C103.750994,59.5278529 103.280718,59.4177882 103.392212,58.9217824" id="Path"></path>
                <path d="M92.3442882,63.2200235 C92.0626941,66.0516882 89.9971941,66.6549 88.7407412,66.5691353 C88.5606353,66.5562706 88.8779647,66.6005824 88.7436,66.5762824 C87.8459294,66.4133294 86.1306353,66.0831353 85.7361176,64.0705235 C85.4831118,62.7797647 85.4345118,60.8157529 85.3973471,60.5212941 C85.3887706,60.4483941 76.9752529,60.4998529 76.9681059,60.4998529 C75.4972412,62.4181235 74.0492471,64.7366294 72.6998824,66.0388235 C72.2138824,66.5076706 71.4863118,66.6334588 70.9531412,66.6005824 C69.6409412,66.5148176 68.1986647,65.8272706 67.7012294,64.4807647 C67.4010529,63.6702882 67.1051647,62.7183 67.6797882,61.8892412 C71.6406882,56.1916059 75.2027824,51.4273765 79.2894706,45.8926941 C81.5465118,42.8351824 83.5534059,40.1278765 85.8676235,37.1775706 C87.0526059,35.6681118 88.0846412,35.6166529 89.1709941,35.5980706 C89.0966647,35.5980706 92.0955706,35.5351765 92.3457176,38.2853647 L92.3457176,63.2114471 L92.3442882,63.2200235 Z M83.9464941,53.8044882 C83.9822294,53.8102059 85.4173588,53.8588059 85.4202176,53.8073471 C85.4788235,52.1906824 85.4273647,50.2695529 85.3973471,48.7129235 C84.1909235,50.301 83.2032,51.7089706 82.0439471,53.2641706 C81.9281647,53.4171176 81.8595529,53.7616059 82.1968941,53.7801882 C82.8158294,53.8173529 83.6248765,53.7530294 83.9464941,53.8044882 Z" id="Shape"></path>
                <path d="M124.092953,49.5076765 C124.777641,44.0630471 128.428359,39.4617706 133.284071,37.3934118 C139.134653,34.9005176 146.1402,36.3013412 150.224029,41.3943353 C151.108835,42.4949824 150.841535,43.9544118 150.019624,45.0593471 C149.163406,46.2071647 147.799747,46.7989412 146.574741,46.3215176 C144.500665,45.5153294 143.072682,43.6599529 140.768471,43.1811 C136.028541,42.1933765 131.5602,45.3538059 130.876941,49.9679471 C130.197971,54.5606471 132.820941,58.9603765 137.482253,59.8466118 C140.754176,60.4684059 143.327118,58.6973647 146.015841,56.8019647 C147.288018,55.9057235 149.423559,56.3545588 150.215453,57.9583588 C150.690018,58.9203529 151.054518,59.9566765 150.468459,60.993 C148.265735,64.8795706 143.795965,66.2732471 139.669253,66.6720529 C136.504535,66.9793765 133.611406,65.8773 130.902671,64.2263294 C125.934035,61.1945471 123.348229,55.4182941 124.092953,49.5076765 Z" id="Path"></path>
            </g>
        </g>
    </g>
</svg>