<?xml version="1.0" encoding="UTF-8"?>
<svg width="204px" height="12px" viewBox="0 0 204 12" version="1.1" xmlns="http://www.w3.org/2000/svg" xmlns:xlink="http://www.w3.org/1999/xlink">
    <!-- Generator: Sketch 53.2 (72643) - https://sketchapp.com -->
    <title>ROYALCANIN.CO.UK</title>
    <desc>Created with Sketch.</desc>
    <g id="Page-1" stroke="none" stroke-width="1" fill="none" fill-rule="evenodd">
        <g id="970x250_02" transform="translate(-675.000000, -166.000000)" fill="#000000" fill-rule="nonzero">
            <path d="M682.10295,177.135 L679.90137,174.0003 C679.629209,174.01974 679.415371,174.02946 679.25985,174.02946 L676.73751,174.02946 L676.73751,177.135 L675.27951,177.135 L675.27951,166.929 L679.25985,166.929 C680.581777,166.929 681.621806,167.244897 682.37997,167.8767 C683.138134,168.508503 683.51721,169.378434 683.51721,170.48652 C683.51721,171.273844 683.322812,171.944517 682.93401,172.49856 C682.545208,173.052603 681.991174,173.455979 681.27189,173.7087 L683.69217,177.135 L682.10295,177.135 Z M679.21611,172.79016 C680.139515,172.79016 680.844208,172.590902 681.33021,172.19238 C681.816212,171.793858 682.05921,171.225244 682.05921,170.48652 C682.05921,169.747796 681.816212,169.181612 681.33021,168.78795 C680.844208,168.394288 680.139515,168.19746 679.21611,168.19746 L676.73751,168.19746 L676.73751,172.79016 L679.21611,172.79016 Z M694.13145,177.25164 C693.101125,177.25164 692.172874,177.025652 691.34667,176.57367 C690.520466,176.121688 689.871662,175.497184 689.40024,174.70014 C688.928818,173.903096 688.69311,173.013725 688.69311,172.032 C688.69311,171.050275 688.928818,170.160904 689.40024,169.36386 C689.871662,168.566816 690.520466,167.942312 691.34667,167.49033 C692.172874,167.038348 693.101125,166.81236 694.13145,166.81236 C695.152055,166.81236 696.075446,167.038348 696.90165,167.49033 C697.727854,167.942312 698.374228,168.564386 698.84079,169.35657 C699.307352,170.148754 699.54063,171.040555 699.54063,172.032 C699.54063,173.023445 699.307352,173.915246 698.84079,174.70743 C698.374228,175.499614 697.727854,176.121688 696.90165,176.57367 C696.075446,177.025652 695.152055,177.25164 694.13145,177.25164 Z M694.13145,175.95402 C694.879894,175.95402 695.552997,175.783922 696.15078,175.44372 C696.748563,175.103518 697.219978,174.634533 697.56504,174.03675 C697.910102,173.438967 698.08263,172.770724 698.08263,172.032 C698.08263,171.293276 697.910102,170.625033 697.56504,170.02725 C697.219978,169.429467 696.748563,168.960482 696.15078,168.62028 C695.552997,168.280078 694.879894,168.10998 694.13145,168.10998 C693.383006,168.10998 692.705043,168.280078 692.09754,168.62028 C691.490037,168.960482 691.013762,169.429467 690.6687,170.02725 C690.323638,170.625033 690.15111,171.293276 690.15111,172.032 C690.15111,172.770724 690.323638,173.438967 690.6687,174.03675 C691.013762,174.634533 691.490037,175.103518 692.09754,175.44372 C692.705043,175.783922 693.383006,175.95402 694.13145,175.95402 Z M708.88641,173.60664 L708.88641,177.135 L707.44299,177.135 L707.44299,173.57748 L703.38975,166.929 L704.94981,166.929 L708.21573,172.30902 L711.49623,166.929 L712.93965,166.929 L708.88641,173.60664 Z M723.94755,174.5835 L718.52379,174.5835 L717.40113,177.135 L715.89939,177.135 L720.52125,166.929 L721.96467,166.929 L726.60111,177.135 L725.07021,177.135 L723.94755,174.5835 Z M723.43725,173.4171 L721.23567,168.41616 L719.03409,173.4171 L723.43725,173.4171 Z M731.76243,166.929 L733.22043,166.929 L733.22043,175.86654 L738.74625,175.86654 L738.74625,177.135 L731.76243,177.135 L731.76243,166.929 Z M748.44195,177.25164 C747.421345,177.25164 746.500384,177.025652 745.67904,176.57367 C744.857696,176.121688 744.213752,175.499614 743.74719,174.70743 C743.280628,173.915246 743.04735,173.023445 743.04735,172.032 C743.04735,171.040555 743.280628,170.148754 743.74719,169.35657 C744.213752,168.564386 744.860126,167.942312 745.68633,167.49033 C746.512534,167.038348 747.435925,166.81236 748.45653,166.81236 C749.253574,166.81236 749.982567,166.946009 750.64353,167.21331 C751.304493,167.480611 751.868248,167.876697 752.33481,168.40158 L751.38711,169.32012 C750.619226,168.513356 749.661816,168.10998 748.51485,168.10998 C747.756686,168.10998 747.071433,168.280078 746.45907,168.62028 C745.846707,168.960482 745.368002,169.429467 745.02294,170.02725 C744.677878,170.625033 744.50535,171.293276 744.50535,172.032 C744.50535,172.770724 744.677878,173.438967 745.02294,174.03675 C745.368002,174.634533 745.846707,175.103518 746.45907,175.44372 C747.071433,175.783922 747.756686,175.95402 748.51485,175.95402 C749.652096,175.95402 750.609506,175.545784 751.38711,174.7293 L752.33481,175.64784 C751.868248,176.172723 751.302063,176.571239 750.63624,176.8434 C749.970417,177.115561 749.238994,177.25164 748.44195,177.25164 Z M764.31957,174.5835 L758.89581,174.5835 L757.77315,177.135 L756.27141,177.135 L760.89327,166.929 L762.33669,166.929 L766.97313,177.135 L765.44223,177.135 L764.31957,174.5835 Z M763.80927,173.4171 L761.60769,168.41616 L759.40611,173.4171 L763.80927,173.4171 Z M780.91161,166.929 L780.91161,177.135 L779.71605,177.135 L773.59245,169.52424 L773.59245,177.135 L772.13445,177.135 L772.13445,166.929 L773.33001,166.929 L779.45361,174.53976 L779.45361,166.929 L780.91161,166.929 Z M787.61841,166.929 L789.07641,166.929 L789.07641,177.135 L787.61841,177.135 L787.61841,166.929 Z M804.56037,166.929 L804.56037,177.135 L803.36481,177.135 L797.24121,169.52424 L797.24121,177.135 L795.78321,177.135 L795.78321,166.929 L796.97877,166.929 L803.10237,174.53976 L803.10237,166.929 L804.56037,166.929 Z M811.39839,177.22248 C811.126229,177.22248 810.892951,177.127711 810.69855,176.93817 C810.504149,176.748629 810.40695,176.508061 810.40695,176.21646 C810.40695,175.934579 810.504149,175.698871 810.69855,175.50933 C810.892951,175.319789 811.126229,175.22502 811.39839,175.22502 C811.670551,175.22502 811.898969,175.317359 812.08365,175.50204 C812.268331,175.686721 812.36067,175.924859 812.36067,176.21646 C812.36067,176.508061 812.265901,176.748629 812.07636,176.93817 C811.886819,177.127711 811.660831,177.22248 811.39839,177.22248 Z M822.49377,177.25164 C821.473165,177.25164 820.552204,177.025652 819.73086,176.57367 C818.909516,176.121688 818.265572,175.499614 817.79901,174.70743 C817.332448,173.915246 817.09917,173.023445 817.09917,172.032 C817.09917,171.040555 817.332448,170.148754 817.79901,169.35657 C818.265572,168.564386 818.911946,167.942312 819.73815,167.49033 C820.564354,167.038348 821.487745,166.81236 822.50835,166.81236 C823.305394,166.81236 824.034387,166.946009 824.69535,167.21331 C825.356313,167.480611 825.920068,167.876697 826.38663,168.40158 L825.43893,169.32012 C824.671046,168.513356 823.713636,168.10998 822.56667,168.10998 C821.808506,168.10998 821.123253,168.280078 820.51089,168.62028 C819.898527,168.960482 819.419822,169.429467 819.07476,170.02725 C818.729698,170.625033 818.55717,171.293276 818.55717,172.032 C818.55717,172.770724 818.729698,173.438967 819.07476,174.03675 C819.419822,174.634533 819.898527,175.103518 820.51089,175.44372 C821.123253,175.783922 821.808506,175.95402 822.56667,175.95402 C823.703916,175.95402 824.661326,175.545784 825.43893,174.7293 L826.38663,175.64784 C825.920068,176.172723 825.353883,176.571239 824.68806,176.8434 C824.022237,177.115561 823.290814,177.25164 822.49377,177.25164 Z M836.50515,177.25164 C835.474825,177.25164 834.546574,177.025652 833.72037,176.57367 C832.894166,176.121688 832.245362,175.497184 831.77394,174.70014 C831.302518,173.903096 831.06681,173.013725 831.06681,172.032 C831.06681,171.050275 831.302518,170.160904 831.77394,169.36386 C832.245362,168.566816 832.894166,167.942312 833.72037,167.49033 C834.546574,167.038348 835.474825,166.81236 836.50515,166.81236 C837.525755,166.81236 838.449146,167.038348 839.27535,167.49033 C840.101554,167.942312 840.747928,168.564386 841.21449,169.35657 C841.681052,170.148754 841.91433,171.040555 841.91433,172.032 C841.91433,173.023445 841.681052,173.915246 841.21449,174.70743 C840.747928,175.499614 840.101554,176.121688 839.27535,176.57367 C838.449146,177.025652 837.525755,177.25164 836.50515,177.25164 Z M836.50515,175.95402 C837.253594,175.95402 837.926697,175.783922 838.52448,175.44372 C839.122263,175.103518 839.593678,174.634533 839.93874,174.03675 C840.283802,173.438967 840.45633,172.770724 840.45633,172.032 C840.45633,171.293276 840.283802,170.625033 839.93874,170.02725 C839.593678,169.429467 839.122263,168.960482 838.52448,168.62028 C837.926697,168.280078 837.253594,168.10998 836.50515,168.10998 C835.756706,168.10998 835.078743,168.280078 834.47124,168.62028 C833.863737,168.960482 833.387462,169.429467 833.0424,170.02725 C832.697338,170.625033 832.52481,171.293276 832.52481,172.032 C832.52481,172.770724 832.697338,173.438967 833.0424,174.03675 C833.387462,174.634533 833.863737,175.103518 834.47124,175.44372 C835.078743,175.783922 835.756706,175.95402 836.50515,175.95402 Z M847.62969,177.22248 C847.357529,177.22248 847.124251,177.127711 846.92985,176.93817 C846.735449,176.748629 846.63825,176.508061 846.63825,176.21646 C846.63825,175.934579 846.735449,175.698871 846.92985,175.50933 C847.124251,175.319789 847.357529,175.22502 847.62969,175.22502 C847.901851,175.22502 848.130269,175.317359 848.31495,175.50204 C848.499631,175.686721 848.59197,175.924859 848.59197,176.21646 C848.59197,176.508061 848.497201,176.748629 848.30766,176.93817 C848.118119,177.127711 847.892131,177.22248 847.62969,177.22248 Z M858.56469,177.25164 C857.203883,177.25164 856.144414,176.862844 855.38625,176.08524 C854.628086,175.307636 854.24901,174.189847 854.24901,172.73184 L854.24901,166.929 L855.70701,166.929 L855.70701,172.67352 C855.70701,174.860531 856.66442,175.95402 858.57927,175.95402 C859.512395,175.95402 860.226808,175.684293 860.72253,175.14483 C861.218252,174.605367 861.46611,173.781606 861.46611,172.67352 L861.46611,166.929 L862.88037,166.929 L862.88037,172.73184 C862.88037,174.199567 862.501294,175.319786 861.74313,176.09253 C860.984966,176.865274 859.925497,177.25164 858.56469,177.25164 Z M872.83851,172.60062 L870.97227,174.49602 L870.97227,177.135 L869.51427,177.135 L869.51427,166.929 L870.97227,166.929 L870.97227,172.62978 L876.51267,166.929 L878.17479,166.929 L873.81537,171.5217 L878.45181,177.135 L876.74595,177.135 L872.83851,172.60062 Z" id="ROYALCANIN.CO.UK"></path>
        </g>
    </g>
</svg>